# xmcd
#
# Track frame offsets: 
#        150
#        13758
#        25948
#        38528
#        54022
#        66420
#        79215
#        92075
#        107613
#        121713
#        136567
#        151090
#        163296
#        178026
#        191771
#        205987
#        220345
#        233699
#        245197
#        260134
#        272615
#        287189
#        301911
#        317070
#        331800
#
# Disc length: 4603 seconds
#
# Revision: 0
# Processed by: cddbd v1.5.2PL0 Copyright (c) Steve Scherf et al.
# Submitted via: ExactAudioCopy v0.99pb3
#
DISCID=5e11f919
DTITLE=Various Artist - When The Levee Breaks - Mississippi Blues: Rare Cuts 
DTITLE=1926-1941 [Disc D] 
DYEAR=1900
DGENRE=Blues
TTITLE0=Son House/Clarksdale Moan
TTITLE1=Bogus Ben Covington/Adam And Eve In The Garden
TTITLE2=George Torey/Lonesome Man Blues
TTITLE3=Walter Rhodes/Leaving Home Blues
TTITLE4=Sam Collins/Loving Lady Blues
TTITLE5=William Harris/Early Mornin' Blues
TTITLE6=Walter 'Buddy Boy' Hawkins/Number Three Blues
TTITLE7=King Solomon Hill/Tell Me Baby
TTITLE8=Robert Lockwood/Little Boy Blue
TTITLE9=Garfield Akers/Cottonfield Blues Part 2
TTITLE10=Willie '61' Blackwell/Chalk My Toy
TTITLE11=Mississippi Jook Band/Barbecue Bust
TTITLE12=Arthur Petties/Two Time Blues
TTITLE13=Joe Stone/Back Door Blues
TTITLE14=Freddie Spruell/Way Back Down Home
TTITLE15=Geeshie Wiley/Skinny Leg Blues
TTITLE16=Joe McCoy/Meat Cutter Blues
TTITLE17=Mississippi Moaner/Mississippi Moan
TTITLE18=Blind Willie Reynolds/Married Man Blues
TTITLE19=Sam Butler/Jefferson County Blues
TTITLE20=Willie '61' Blackwell/Rampaw Street Blues
TTITLE21=Mississippi Bracey/I'll Overcome Someday
TTITLE22=Arthur Petties/Good Boy Blues
TTITLE23=Jelly Jaw Short/Grand Daddy Blues
TTITLE24=Freddie Spruell/Let's Go Riding
EXTD=
EXTT0=
EXTT1=
EXTT2=
EXTT3=
EXTT4=
EXTT5=
EXTT6=
EXTT7=
EXTT8=
EXTT9=
EXTT10=
EXTT11=
EXTT12=
EXTT13=
EXTT14=
EXTT15=
EXTT16=
EXTT17=
EXTT18=
EXTT19=
EXTT20=
EXTT21=
EXTT22=
EXTT23=
EXTT24=
PLAYORDER=
